<?xml version="1.0" standalone="no"?>
<!DOCTYPE svg PUBLIC "-//W3C//DTD SVG 20010904//EN"
 "http://www.w3.org/TR/2001/REC-SVG-20010904/DTD/svg10.dtd">
<svg version="1.0" xmlns="http://www.w3.org/2000/svg"
 width="1280.000000pt" height="871.000000pt" viewBox="0 0 1280.000000 871.000000"
 preserveAspectRatio="xMidYMid meet">
<g transform="translate(0.000000,871.000000) scale(0.100000,-0.100000)"
fill="#000000" stroke="none">
<path d="M9536 8694 c-4 -10 -1 -24 8 -32 12 -13 22 -13 60 -2 53 15 58 25 17
33 -16 3 -40 9 -53 12 -19 5 -27 2 -32 -11z"/>
<path d="M10480 8648 c-68 -35 -61 -44 36 -43 69 0 89 3 97 16 32 50 -53 67
-133 27z"/>
<path d="M8943 8614 c-9 -24 14 -64 37 -64 12 0 45 10 73 22 l52 22 -55 18
c-70 21 -99 22 -107 2z"/>
<path d="M8668 8613 c-86 -3 -98 -6 -98 -21 0 -10 6 -27 14 -37 13 -18 17 -18
41 -5 23 12 30 12 58 -3 29 -16 38 -16 87 -4 51 13 55 17 55 43 0 33 4 33
-157 27z"/>
<path d="M10076 8602 c-10 -10 -6 -22 14 -42 23 -23 93 -27 166 -9 46 12 62
25 48 39 -10 9 -220 20 -228 12z"/>
<path d="M9340 8565 c0 -19 39 -40 52 -27 6 6 2 15 -13 26 -29 20 -39 20 -39
1z"/>
<path d="M9587 8573 c-15 -14 -6 -33 16 -33 29 0 51 15 43 29 -8 12 -49 15
-59 4z"/>
<path d="M9835 8568 c-68 -17 -110 -33 -110 -43 0 -6 17 -18 38 -29 38 -18 39
-18 60 2 12 11 34 24 49 27 40 10 54 31 29 44 -11 6 -21 10 -23 10 -2 -1 -21
-6 -43 -11z"/>
<path d="M5473 8537 c-11 -17 8 -57 37 -77 38 -27 40 -63 4 -87 -24 -16 -28
-16 -59 1 -18 10 -38 29 -45 42 -20 37 -59 57 -108 56 -54 0 -68 -12 -52 -41
14 -28 5 -58 -21 -66 -21 -7 -51 11 -147 83 -24 17 -48 30 -53 26 -5 -3 -21
-28 -35 -55 -21 -43 -29 -50 -51 -47 -20 2 -34 16 -58 57 -43 72 -52 76 -144
61 -111 -19 -156 -45 -130 -76 10 -12 24 -14 61 -9 47 7 50 5 83 -30 19 -20
35 -41 35 -46 0 -5 20 -9 44 -9 38 0 48 -4 66 -30 26 -37 55 -38 101 -5 78 57
135 69 169 35 34 -34 23 -80 -20 -80 -33 0 -140 -39 -140 -51 0 -12 39 -20 80
-17 44 4 56 -27 15 -42 -41 -16 -24 -34 36 -40 41 -4 68 -15 109 -43 45 -31
63 -37 105 -37 75 0 91 8 110 51 10 21 29 46 42 55 30 19 67 98 59 127 -13 51
31 70 105 46 50 -17 77 -46 110 -119 16 -35 35 -68 42 -72 23 -15 101 -8 130
10 64 43 73 87 27 139 -16 18 -30 40 -30 48 0 20 -32 35 -77 35 -22 0 -54 11
-78 25 -27 17 -55 25 -86 25 -31 0 -55 6 -70 18 -31 26 -20 52 23 52 18 1 44
7 58 15 40 23 60 18 73 -15 l12 -30 87 6 c82 6 89 5 132 -20 56 -33 100 -33
176 -1 38 16 69 23 87 19 22 -4 37 2 67 25 21 17 47 31 56 31 25 0 43 25 35
51 -6 19 -11 20 -44 13 -39 -9 -160 -9 -624 -3 -165 2 -301 0 -304 -4z"/>
<path d="M9155 8516 c-25 -18 -15 -28 43 -45 44 -12 62 -9 62 13 0 33 -74 55
-105 32z"/>
<path d="M11450 8070 c-8 -5 -30 -10 -48 -10 -27 0 -42 -9 -77 -47 l-43 -48
-125 3 c-102 3 -131 0 -158 -13 -28 -15 -41 -16 -107 -5 -73 12 -74 12 -101
-14 -21 -20 -37 -26 -73 -26 -26 0 -59 -5 -75 -11 -15 -6 -48 -10 -73 -10 -69
0 -80 -7 -106 -66 l-24 -55 -39 7 c-54 9 -96 -14 -111 -60 -7 -20 -10 -41 -7
-48 11 -28 -14 -59 -68 -82 -41 -19 -55 -30 -55 -46 0 -18 5 -20 38 -17 31 3
37 0 40 -18 2 -17 -6 -25 -38 -38 -22 -9 -51 -16 -64 -16 -25 0 -56 -28 -56
-52 0 -8 9 -27 21 -42 38 -48 15 -72 -76 -78 -35 -3 -40 -6 -43 -30 -4 -34 27
-56 96 -67 35 -5 62 -18 87 -39 20 -18 40 -32 46 -32 6 0 23 14 38 30 35 39
51 33 91 -31 l30 -50 78 2 c46 2 86 -2 100 -10 14 -8 39 -10 66 -6 31 5 52 2
76 -10 18 -9 56 -19 86 -22 50 -5 54 -4 54 15 0 34 -46 62 -104 62 -66 0 -75
6 -221 147 -84 81 -91 103 -50 151 20 24 22 31 10 36 -19 7 -19 50 0 66 8 7
26 9 44 5 24 -5 32 -2 48 21 10 14 35 44 56 65 20 21 37 44 37 52 0 7 10 23
23 35 18 17 36 22 76 22 49 0 55 3 89 41 52 57 99 78 210 93 54 7 111 20 128
29 17 9 59 21 92 26 34 5 71 15 84 22 12 6 60 16 105 20 113 12 190 52 181 96
-2 11 -26 25 -68 40 -72 25 -97 28 -120 13z"/>
<path d="M2218 7080 c-21 -20 -38 -39 -38 -43 0 -3 14 -2 32 3 35 11 78 47 78
67 0 23 -34 11 -72 -27z"/>
<path d="M6961 7068 c-6 -7 -23 -28 -37 -46 -36 -44 -67 -41 -74 8 -4 26 -10
36 -27 38 -25 4 -63 -33 -63 -61 0 -28 -56 -79 -82 -75 -46 6 -29 80 23 101
11 4 10 9 -6 22 -15 12 -37 15 -85 13 -63 -3 -65 -4 -83 -39 -38 -72 -125 -96
-231 -64 -73 22 -93 20 -111 -15 -12 -23 -22 -30 -46 -30 -22 0 -32 -6 -39
-25 -11 -30 -44 -33 -72 -8 -16 15 -25 15 -64 5 -24 -7 -52 -12 -62 -12 -10 0
-29 -13 -44 -30 -17 -20 -36 -30 -55 -31 -15 0 -59 -13 -98 -28 -79 -30 -106
-60 -131 -147 -20 -69 -33 -79 -114 -79 -76 0 -100 -13 -100 -56 0 -33 -7 -40
-112 -116 -77 -54 -78 -56 -78 -99 0 -40 -3 -44 -27 -49 -16 -4 -35 -10 -43
-14 -20 -11 -31 -66 -24 -119 7 -50 -7 -72 -47 -72 -48 0 -79 -18 -94 -54 -10
-24 -24 -38 -49 -46 -18 -6 -42 -20 -51 -30 -10 -11 -29 -20 -42 -20 -13 0
-34 -11 -47 -25 -13 -14 -29 -25 -35 -25 -7 0 -17 -13 -22 -30 -6 -16 -16 -30
-22 -31 -7 -1 -37 -2 -67 -3 l-55 -1 3 -41 c3 -54 -10 -63 -94 -70 -75 -7
-109 -22 -119 -53 -3 -11 -33 -38 -67 -61 -51 -34 -68 -40 -113 -40 -75 0 -81
-11 -89 -152 -6 -124 -5 -128 42 -133 27 -3 62 -37 62 -62 0 -21 -25 -65 -49
-87 -29 -26 -26 -41 10 -67 l32 -22 -6 -85 -6 -84 39 6 c35 5 43 2 84 -34 75
-64 134 -65 311 -4 82 28 108 43 145 79 27 27 59 47 78 51 34 7 37 12 71 97
14 36 33 34 66 -5 31 -39 47 -56 75 -82 12 -12 20 -32 20 -51 0 -41 31 -81 70
-88 33 -7 33 -6 76 -142 24 -76 37 -98 77 -138 50 -51 54 -62 36 -100 -9 -21
-7 -31 16 -65 15 -22 29 -59 32 -82 3 -23 12 -44 21 -47 8 -3 38 1 66 11 29 9
62 16 74 16 12 0 22 3 23 8 0 4 1 24 3 44 6 77 54 111 126 89 54 -16 74 -14
98 12 26 28 52 98 52 143 0 18 5 45 11 61 6 15 15 76 18 135 8 117 19 142 71
153 15 3 36 15 46 26 20 22 44 25 63 7 18 -19 41 16 41 64 0 29 6 41 25 54 55
36 55 78 0 88 -25 5 -42 18 -63 49 -27 41 -30 42 -82 42 -50 0 -56 2 -68 28
-10 20 -11 39 -5 65 7 27 6 45 -6 69 -13 29 -13 34 1 50 9 10 19 34 23 53 12
55 33 89 65 103 16 6 40 28 52 47 14 21 36 38 56 44 18 5 57 30 87 57 30 26
68 50 84 54 17 3 50 26 74 49 23 24 50 45 58 48 12 4 12 10 0 39 -33 85 -20
118 60 146 46 16 50 20 45 43 -2 14 -1 31 3 38 20 33 150 41 261 17 36 -8 79
-14 97 -15 33 0 61 -30 47 -51 -3 -6 4 -24 16 -41 30 -41 21 -56 -36 -60 -45
-3 -49 -6 -74 -48 -15 -25 -40 -52 -57 -60 -18 -8 -42 -30 -55 -49 -15 -23
-35 -38 -58 -44 -19 -5 -49 -22 -67 -38 -19 -16 -44 -29 -56 -29 -27 0 -107
-89 -107 -120 0 -29 26 -78 66 -123 39 -43 40 -45 17 -92 -16 -34 -16 -39 1
-88 21 -61 33 -77 54 -77 9 0 29 -12 44 -27 24 -23 38 -28 84 -28 50 0 57 -3
90 -37 56 -60 112 -63 208 -11 35 19 73 29 121 34 39 3 102 14 140 22 39 9
112 17 163 17 67 0 99 4 117 16 28 18 60 7 70 -26 7 -22 15 -24 118 -39 73
-11 109 -28 127 -61 17 -32 -14 -36 -64 -9 -40 21 -47 22 -87 10 -24 -7 -71
-30 -104 -51 -107 -69 -145 -75 -221 -33 -75 41 -199 38 -384 -12 -118 -31
-119 -51 -10 -156 73 -72 100 -114 86 -137 -3 -5 -1 -24 4 -43 14 -47 6 -64
-45 -93 -71 -42 -96 -36 -169 39 -73 76 -91 80 -165 34 -40 -25 -57 -45 -86
-100 l-36 -69 26 -58 c35 -75 42 -155 18 -202 -20 -39 -75 -80 -107 -80 -29 0
-46 -18 -46 -50 0 -44 -35 -64 -151 -87 -37 -7 -65 11 -72 47 -9 41 -46 55
-105 40 -23 -6 -70 -11 -103 -11 -58 -1 -62 -3 -81 -35 -23 -40 -39 -46 -132
-48 -63 -1 -78 -6 -121 -34 -72 -48 -111 -44 -210 18 -61 39 -88 50 -120 50
-65 0 -118 -19 -151 -56 -42 -45 -77 -46 -104 -2 -14 23 -35 38 -82 55 -67 25
-78 35 -78 71 0 17 -6 22 -24 22 -31 0 -56 25 -56 55 0 13 -5 36 -12 51 -11
23 -10 28 8 43 12 9 33 35 47 58 19 30 35 43 59 48 60 13 78 46 34 66 -36 17
-48 52 -35 103 8 34 8 50 -5 79 -8 21 -22 37 -30 37 -9 0 -30 -19 -47 -42
l-30 -43 -81 -5 c-72 -5 -83 -9 -104 -33 -32 -37 -58 -129 -49 -175 3 -21 19
-56 36 -79 16 -23 32 -57 36 -75 3 -18 25 -71 49 -116 58 -110 57 -132 -3
-188 -27 -24 -52 -44 -57 -44 -6 0 -22 11 -36 25 -27 26 -46 30 -107 27 -25
-2 -34 -7 -39 -26 -7 -31 -27 -39 -59 -24 -36 16 -89 -2 -179 -63 -54 -37 -89
-53 -120 -56 -40 -5 -45 -8 -50 -37 -4 -17 -22 -56 -41 -86 -39 -60 -42 -86
-19 -135 29 -62 20 -70 -76 -67 -83 3 -87 3 -125 -28 -34 -27 -44 -30 -77 -25
-55 10 -84 -12 -90 -67 -7 -60 -41 -133 -72 -153 -14 -9 -43 -19 -66 -22 l-40
-6 2 -51 3 -51 -30 3 c-16 2 -69 2 -118 2 l-87 -2 -47 46 c-48 48 -62 53 -92
36 -29 -15 -33 -40 -12 -74 27 -44 42 -105 31 -126 -6 -12 -27 -19 -70 -23
-53 -6 -68 -3 -110 18 -62 31 -68 31 -116 -2 -34 -25 -48 -28 -116 -28 -42 0
-80 -3 -84 -8 -4 -4 4 -20 18 -35 20 -20 25 -34 21 -55 -8 -42 9 -54 90 -60
108 -8 154 -24 189 -68 22 -27 40 -39 62 -41 29 -3 31 -6 34 -48 4 -53 33 -89
98 -120 55 -25 58 -37 58 -210 1 -124 -2 -141 -27 -210 -16 -41 -33 -93 -38
-115 -19 -76 -58 -100 -181 -108 -78 -5 -89 -4 -113 15 -26 20 -27 20 -68 2
-65 -30 -158 -26 -232 10 -58 28 -65 29 -216 30 -132 1 -161 4 -191 20 -48 26
-83 16 -98 -28 -13 -41 -24 -46 -96 -46 -98 0 -125 -66 -59 -148 19 -24 37
-52 40 -63 4 -10 -4 -50 -16 -89 l-23 -71 32 -30 c18 -17 32 -35 32 -41 0 -35
-45 -151 -75 -193 -22 -32 -35 -61 -35 -81 0 -20 -11 -45 -30 -69 -27 -34 -30
-45 -30 -107 0 -70 0 -70 25 -64 20 5 31 0 51 -21 25 -27 26 -30 22 -153 l-3
-125 67 -14 c66 -14 67 -13 112 13 54 31 108 34 154 6 17 -11 33 -23 33 -27 1
-5 3 -28 4 -51 3 -38 10 -51 59 -98 30 -30 58 -54 62 -54 3 0 23 18 43 41 52
57 119 71 386 78 l210 6 18 57 c24 76 58 101 144 106 34 3 67 10 73 17 5 6 14
40 18 74 10 70 20 81 74 81 29 0 45 8 72 35 20 19 42 35 50 35 23 0 39 36 26
60 -6 11 -17 20 -25 20 -8 0 -24 9 -36 21 -30 30 -24 61 48 275 18 56 54 86
145 124 42 17 96 46 119 63 73 56 93 67 121 67 56 0 90 73 63 137 -24 56 -19
116 10 151 20 24 41 34 98 47 95 22 166 14 210 -24 40 -35 87 -51 148 -51 41
0 58 7 116 47 68 47 147 83 181 83 31 0 62 42 62 83 0 42 24 61 67 51 86 -19
219 -69 239 -91 12 -13 41 -61 65 -106 23 -45 61 -102 84 -127 24 -25 46 -59
49 -77 9 -40 22 -51 66 -55 28 -2 38 -10 52 -37 13 -27 38 -45 118 -87 89 -48
108 -54 160 -54 49 0 61 -4 74 -22 9 -12 16 -32 16 -44 0 -37 35 -58 112 -65
72 -6 92 -19 82 -51 -9 -30 5 -54 41 -71 45 -21 112 -83 131 -120 25 -47 34
-126 17 -143 -8 -8 -20 -14 -28 -14 -16 0 -22 -16 -31 -78 -6 -50 9 -82 41
-82 12 0 71 86 117 169 10 18 25 31 37 31 46 0 67 63 36 107 -9 13 -34 28 -56
35 -69 20 -85 72 -39 123 10 11 20 31 22 44 6 44 31 48 98 16 59 -28 64 -34
72 -90 8 -52 78 -15 78 41 0 30 -5 36 -48 58 -27 14 -98 54 -157 91 -61 36
-126 68 -148 72 -56 9 -67 23 -54 73 16 60 2 69 -125 79 -142 12 -161 23 -204
119 -38 86 -46 101 -96 187 -53 89 -80 115 -122 115 -51 0 -100 45 -99 91 2
89 9 185 16 195 4 7 23 15 42 18 19 4 39 16 45 26 18 34 46 43 80 25 33 -17
40 -37 37 -106 -3 -59 14 -79 64 -79 32 0 42 -5 51 -25 14 -31 23 -31 44 0 27
41 60 25 47 -24 -3 -12 4 -32 16 -50 12 -16 21 -38 21 -49 0 -36 40 -70 155
-131 86 -46 125 -61 156 -61 56 0 72 -11 115 -80 35 -58 70 -90 96 -90 7 0 44
-15 83 -34 38 -19 87 -41 107 -49 63 -26 67 -41 58 -217 l-8 -155 34 -28 c24
-21 34 -37 34 -57 0 -52 17 -80 47 -80 39 -1 66 -25 105 -94 35 -62 37 -64
108 -95 36 -15 57 -18 100 -12 70 8 165 -4 204 -27 20 -12 33 -28 36 -48 5
-26 9 -29 41 -29 24 -1 47 -10 68 -28 36 -30 51 -33 69 -15 33 33 4 85 -71
132 -37 23 -28 30 33 27 41 -2 50 1 50 14 0 16 -46 65 -62 65 -5 0 -22 10 -38
21 -26 19 -32 20 -59 9 -26 -10 -35 -10 -56 4 -28 18 -33 47 -10 66 22 18 20
23 -35 77 -48 47 -49 50 -51 111 -2 45 2 67 13 78 13 14 22 9 76 -45 l62 -61
41 22 c37 19 40 23 35 52 -7 37 18 72 60 82 36 9 140 9 198 -1 41 -7 52 -13
69 -43 l20 -34 60 6 c67 7 140 36 177 71 23 21 36 24 140 27 114 4 115 4 115
28 0 21 -6 26 -42 32 -94 16 -163 76 -163 143 0 19 -11 40 -32 62 l-32 33 12
69 c16 95 28 117 73 135 48 19 56 53 39 167 -14 98 -3 124 57 134 93 15 90 14
97 53 3 20 6 53 6 72 0 43 7 53 45 73 17 8 37 26 44 40 7 14 26 35 42 46 16
12 29 30 29 39 0 43 54 56 85 22 10 -11 24 -20 31 -20 7 0 26 -11 42 -24 32
-28 104 -56 142 -56 14 0 50 7 80 15 66 18 90 12 90 -20 0 -20 -14 -31 -80
-66 -77 -40 -111 -71 -91 -83 5 -4 38 -9 72 -13 79 -8 109 -33 109 -90 0 -55
24 -85 63 -81 26 2 35 10 50 40 18 40 40 48 79 27 19 -10 26 -6 64 37 l42 49
44 -23 c56 -29 103 -29 119 -1 23 44 -35 63 -141 45 -38 -7 -50 -4 -80 16 -19
13 -47 42 -62 65 -16 24 -41 46 -59 52 -41 14 -33 32 25 53 28 10 63 33 84 56
l37 39 117 5 118 5 39 36 c42 38 103 57 130 40 24 -15 24 -52 2 -146 -12 -46
-21 -105 -21 -130 0 -57 -29 -97 -71 -97 -68 0 -5 -68 89 -97 31 -9 69 -27 84
-39 15 -13 52 -30 83 -38 34 -10 59 -24 66 -37 6 -12 34 -47 62 -79 29 -31 66
-73 82 -93 42 -48 109 -60 165 -28 47 26 170 29 228 6 46 -20 105 -76 138
-133 34 -57 63 -67 127 -46 97 32 194 3 275 -84 l53 -56 122 -8 c251 -16 312
-23 345 -41 41 -22 127 -34 136 -19 6 10 -16 42 -121 170 -19 24 -57 57 -84
74 -62 38 -69 51 -69 131 0 54 -5 70 -29 108 -48 71 -68 89 -104 89 -65 0 -72
37 -28 134 16 35 32 83 36 105 7 42 27 61 62 61 34 0 138 57 161 89 13 17 20
36 17 41 -7 11 11 22 44 27 203 26 201 25 201 70 0 28 36 53 75 53 16 -1 55
-11 85 -25 30 -13 57 -22 59 -20 2 3 -11 26 -28 53 -17 27 -29 56 -26 65 4 8
-5 42 -19 76 -15 35 -26 80 -26 106 0 57 -16 88 -75 145 -27 26 -58 71 -75
106 -15 34 -37 71 -47 81 -22 22 -43 75 -43 109 0 31 39 42 130 36 58 -3 90 0
144 17 37 11 81 21 97 21 22 0 31 7 45 35 16 34 16 36 -15 89 -34 61 -35 59
48 101 49 24 63 27 131 23 77 -5 126 -22 250 -92 43 -24 306 -136 320 -136 3
0 38 26 76 59 67 56 70 61 83 122 7 35 17 70 23 76 6 7 7 21 3 30 -13 35 -45
245 -45 301 0 78 -16 130 -51 165 l-29 29 -78 -79 c-106 -109 -178 -133 -286
-97 -66 23 -157 109 -196 186 -60 121 -35 157 145 213 147 46 169 65 163 136
-7 65 -56 163 -136 268 l-65 85 -8 131 c-4 74 -14 147 -22 170 -9 22 -30 108
-47 190 -91 434 -190 752 -261 844 -11 13 -19 39 -19 58 0 59 95 142 304 265
34 20 46 33 46 51 0 29 -39 107 -84 169 -30 39 -42 48 -86 57 -28 6 -72 21
-98 33 -27 12 -81 24 -127 29 -44 4 -98 14 -120 22 -26 10 -91 16 -185 18
l-145 4 0 -25 c0 -18 9 -29 34 -41 66 -31 83 -95 34 -126 -16 -9 -38 -27 -51
-40 -13 -13 -31 -23 -42 -23 -18 0 -65 51 -89 98 -14 26 -33 28 -52 5 -35 -42
-93 -54 -270 -58 l-170 -4 -33 -36 c-37 -39 -68 -44 -106 -18 -32 22 -38 30
-51 76 -15 56 -45 66 -100 34 -24 -13 -64 -28 -87 -31 -24 -4 -65 -18 -90 -31
-26 -14 -59 -25 -73 -25 -41 0 -108 -27 -176 -71 -45 -29 -78 -43 -115 -48
-52 -6 -54 -7 -78 -56 -17 -34 -37 -56 -62 -70 l-37 -20 -98 24 c-151 36 -162
43 -149 96 8 33 51 53 104 47 39 -4 42 -2 42 20 0 35 -17 52 -85 87 -67 35
-122 47 -253 57 -111 8 -122 -3 -48 -50 30 -19 57 -44 61 -56 4 -11 -1 -46
-11 -77 -17 -52 -17 -56 -1 -68 10 -7 36 -16 60 -19 75 -12 110 -54 72 -86
-18 -15 -19 -43 -4 -71 13 -25 -4 -49 -33 -49 -11 0 -53 12 -95 26 -41 14
-114 29 -161 34 -73 6 -89 11 -102 30 -8 12 -36 45 -61 74 -28 32 -49 67 -53
89 -7 38 -13 41 -81 52 -22 4 -63 22 -91 41 -60 41 -101 54 -165 54 -58 0 -94
13 -178 61 -48 29 -77 39 -108 39 -24 0 -85 14 -136 30 -53 17 -116 30 -144
30 -28 0 -58 6 -69 15 -25 19 -49 19 -101 -1 -58 -22 -88 -13 -113 35 -15 31
-29 42 -66 55 -63 21 -80 20 -138 -9 -57 -29 -82 -30 -150 -10 -27 8 -66 15
-86 15 -41 0 -74 27 -68 57 3 15 14 18 73 19 75 1 115 10 115 24 0 6 -12 12
-27 15 -16 3 -55 15 -88 26 -74 24 -113 24 -176 2 -58 -21 -81 -12 -89 33 -4
25 -10 29 -42 32 -21 2 -41 -2 -47 -10z m-616 -4008 c7 -12 -12 -12 -40 0 -18
8 -17 9 7 9 15 1 30 -3 33 -9z"/>
<path d="M6346 7047 l-39 -12 27 -13 c36 -16 81 -15 96 3 27 33 -12 43 -84 22z"/>
<path d="M11060 6960 c-8 -15 -6 -24 10 -40 11 -11 30 -20 43 -20 12 0 54 -11
92 -25 71 -24 90 -22 83 11 -2 12 -16 21 -43 26 -22 5 -47 17 -55 27 -37 44
-111 56 -130 21z"/>
<path d="M9820 6800 c-45 -45 -8 -90 76 -90 69 0 144 18 144 35 0 19 -19 31
-87 54 -78 26 -108 26 -133 1z"/>
<path d="M5405 6734 c-27 -13 -56 -31 -65 -39 -27 -27 54 -19 87 9 15 12 42
30 58 39 l30 16 -30 0 c-16 0 -52 -11 -80 -25z"/>
<path d="M5471 6694 c-25 -32 -17 -54 19 -54 35 0 60 23 60 56 0 35 -51 34
-79 -2z"/>
<path d="M5300 6613 l-35 -16 32 -10 c37 -11 88 2 88 24 0 20 -44 21 -85 2z"/>
<path d="M1098 6270 c-6 -18 -19 -32 -31 -34 -61 -13 -79 -17 -103 -22 -14 -4
-35 -2 -47 4 -23 11 -101 22 -172 25 -38 2 -40 1 -45 -33 -4 -20 -10 -41 -14
-48 -12 -20 -48 -14 -76 13 -14 13 -40 28 -58 31 -29 6 -32 4 -32 -18 0 -32
-17 -52 -62 -73 -50 -23 -68 -15 -68 29 0 57 -18 83 -68 101 -58 19 -71 19
-94 -1 -10 -10 -41 -21 -69 -25 -33 -5 -61 -18 -82 -36 -18 -15 -43 -35 -57
-44 l-24 -16 28 -18 c24 -16 31 -17 49 -5 56 36 95 50 138 50 58 0 81 -19 77
-64 -2 -24 -11 -35 -38 -48 -30 -15 -45 -16 -108 -6 -56 8 -75 8 -87 -2 -25
-20 -18 -49 13 -56 85 -18 138 -67 128 -117 -3 -16 -1 -37 4 -47 14 -26 84
-34 145 -15 68 20 84 19 148 -11 l56 -25 81 26 c80 25 87 25 348 23 147 -1
276 1 287 5 29 10 55 58 55 101 0 44 46 100 95 116 30 10 35 16 35 44 0 41
-15 56 -56 56 -34 0 -64 28 -64 60 0 9 -11 27 -25 40 -22 21 -29 22 -61 12
-44 -13 -55 -9 -83 28 -28 38 -49 38 -63 0z"/>
<path d="M2302 5522 c20 -47 34 -57 63 -44 46 21 28 55 -37 65 -37 6 -37 5
-26 -21z"/>
<path d="M3115 5224 c-9 -9 -14 -23 -11 -31 3 -8 6 -16 6 -18 0 -3 9 -9 20
-15 14 -8 29 -7 55 4 36 16 46 41 23 64 -17 17 -74 15 -93 -4z"/>
<path d="M6256 5175 c-22 -17 -15 -45 12 -45 25 0 46 25 38 45 -7 19 -25 19
-50 0z"/>
<path d="M2893 4970 c-24 -10 -32 -39 -10 -41 21 -2 50 3 76 13 25 9 25 10 7
24 -22 16 -41 17 -73 4z"/>
<path d="M6670 4940 c-34 -26 -18 -54 34 -58 65 -6 89 36 36 63 -37 19 -40 19
-70 -5z"/>
<path d="M6790 4849 c-14 -6 -60 -14 -103 -19 -43 -5 -82 -12 -87 -15 -5 -3 0
-25 12 -50 27 -56 54 -59 110 -11 22 19 53 38 68 41 34 8 54 29 46 50 -6 17
-11 18 -46 4z"/>
<path d="M2585 4813 c-16 -71 -52 -101 -147 -118 -46 -9 -51 9 -13 45 36 34
32 84 -7 88 -38 5 -103 -34 -124 -74 -23 -43 -9 -81 33 -86 27 -3 28 -6 28
-53 l0 -50 44 -1 c45 -1 61 -14 61 -50 0 -11 13 -30 30 -42 28 -21 30 -26 27
-85 l-2 -62 32 3 c54 6 70 -5 87 -58 22 -67 22 -68 -25 -111 -49 -45 -49 -72
-2 -77 47 -5 111 16 135 44 39 44 60 27 72 -60 5 -41 13 -55 51 -90 52 -49 60
-89 23 -124 -47 -43 -137 -56 -184 -25 -37 24 -44 7 -44 -108 0 -104 -1 -107
-62 -138 -37 -18 -64 -60 -55 -84 5 -13 20 -17 66 -17 88 0 214 -19 230 -35
12 -11 12 -19 3 -40 -10 -22 -18 -25 -62 -25 -60 0 -92 -14 -182 -77 -69 -49
-132 -118 -125 -137 8 -22 77 -7 123 26 41 29 47 31 78 20 59 -22 80 -15 136
39 56 55 67 57 137 28 30 -12 37 -11 103 24 l71 37 151 0 c134 0 157 2 196 21
55 27 60 40 28 72 -14 15 -26 30 -26 35 0 21 38 55 95 85 l60 32 -3 50 c-5 73
-14 85 -67 83 -55 -3 -85 21 -85 68 0 21 -7 38 -20 47 -10 7 -25 31 -32 52
-10 30 -20 40 -48 49 -22 7 -36 18 -38 31 -8 56 -14 66 -55 86 -47 25 -106 66
-124 88 -7 8 -10 24 -7 37 7 28 -15 70 -61 114 -36 35 -36 35 -118 32 -72 -3
-85 0 -105 18 -29 28 -25 41 21 63 20 9 37 22 37 27 0 19 40 50 63 50 38 0 57
32 68 110 12 83 7 116 -19 122 -10 3 -53 -6 -97 -18 -91 -28 -137 -30 -155 -9
-16 19 8 58 49 79 35 18 47 45 28 63 -10 10 -20 11 -40 4 -15 -6 -39 -9 -54
-6 -16 2 -61 7 -100 10 l-73 5 -5 -27z"/>
<path d="M6093 4670 c-38 -23 -42 -48 -13 -73 11 -9 20 -28 20 -43 0 -34 34
-29 38 6 2 14 17 39 33 58 16 18 29 42 29 52 0 16 -7 20 -37 20 -21 0 -53 -9
-70 -20z"/>
<path d="M5856 4468 c-8 -29 -11 -57 -7 -61 17 -17 48 13 59 55 12 47 9 58
-18 58 -14 0 -22 -13 -34 -52z"/>
<path d="M2382 4433 c2 -10 10 -18 18 -18 22 0 18 29 -3 33 -14 3 -18 -1 -15
-15z"/>
<path d="M5197 4320 c-13 -16 -29 -20 -72 -20 -95 0 -88 -49 13 -105 l62 -35
11 27 c6 16 20 49 31 75 12 25 18 54 15 62 -9 22 -39 20 -60 -4z"/>
<path d="M2410 4315 c-7 -9 -10 -18 -7 -21 3 -3 10 4 17 15 13 25 8 27 -10 6z"/>
<path d="M2130 4179 c-80 -19 -130 -47 -130 -73 0 -6 14 -19 31 -28 25 -15 30
-23 27 -50 -2 -24 -10 -36 -30 -46 -31 -14 -51 -8 -102 35 -22 18 -38 23 -69
21 -72 -5 -77 -62 -8 -82 27 -8 32 -14 29 -35 -3 -24 -26 -42 -70 -55 -33 -10
-8 -31 55 -46 43 -10 63 -20 65 -32 4 -22 -69 -95 -118 -116 -37 -17 -110 -93
-110 -115 0 -6 19 -31 42 -54 40 -41 45 -43 98 -43 68 1 214 41 243 68 44 40
90 56 163 58 39 1 80 4 91 8 42 13 87 191 76 298 -7 67 8 98 63 130 19 11 34
23 34 27 0 4 -24 39 -53 77 -39 49 -59 68 -73 66 -28 -5 -83 -4 -129 2 -23 3
-76 -3 -125 -15z"/>
<path d="M5644 4189 c-7 -12 15 -31 28 -23 4 3 8 12 8 20 0 17 -26 19 -36 3z"/>
<path d="M5050 4117 c0 -8 12 -17 28 -21 15 -3 38 -9 50 -12 21 -6 23 -4 20
17 -3 21 -9 24 -50 27 -36 2 -48 0 -48 -11z"/>
<path d="M4871 1672 c-7 -12 -28 -30 -49 -40 -59 -27 -71 -105 -20 -127 19 -8
22 -17 20 -46 -2 -26 2 -38 13 -43 52 -20 90 64 79 176 -4 37 -12 75 -19 85
-11 15 -13 15 -24 -5z"/>
<path d="M4850 1313 c-34 -18 -56 -23 -87 -20 -41 4 -63 -6 -63 -29 0 -6 9
-14 21 -17 18 -5 20 -11 14 -45 -5 -34 -3 -41 18 -55 20 -13 25 -26 29 -74 4
-39 1 -67 -9 -86 -14 -28 -4 -67 17 -67 5 0 12 -11 16 -25 9 -37 48 -33 87 10
18 18 45 39 60 45 26 9 28 13 21 43 -4 17 -7 82 -6 143 3 116 -4 150 -38 184
-24 24 -23 24 -80 -7z"/>
<path d="M3765 1031 c-17 -19 -16 -21 16 -40 43 -27 85 -27 99 -2 13 25 13 27
-6 45 -22 23 -87 21 -109 -3z"/>
<path d="M3563 913 c-30 -11 -6 -63 28 -63 26 0 36 40 13 57 -19 14 -22 14
-41 6z"/>
<path d="M5896 735 c-33 -25 -108 -35 -167 -23 -65 13 -229 10 -246 -4 -19
-15 -16 -72 5 -90 9 -9 28 -19 42 -23 14 -4 37 -19 52 -33 24 -22 31 -24 53
-14 37 17 42 15 53 -17 8 -22 15 -28 30 -24 14 3 26 -4 40 -25 17 -22 32 -31
67 -35 25 -4 59 -14 76 -22 28 -15 33 -15 55 0 37 24 32 63 -11 81 -53 22 -56
54 -11 104 39 43 42 59 25 109 -12 34 -32 39 -63 16z"/>
<path d="M6994 689 c-38 -11 -67 -41 -62 -66 1 -10 22 -27 46 -38 30 -14 44
-27 48 -45 3 -14 10 -42 15 -64 10 -38 11 -38 49 -32 33 5 41 3 59 -20 15 -18
26 -24 40 -19 15 4 28 -1 46 -19 14 -14 28 -26 30 -26 9 0 -9 118 -22 143 -18
37 -11 57 22 57 14 0 25 3 25 6 0 4 -16 27 -36 50 -25 32 -43 44 -62 44 -15 0
-47 9 -71 20 -46 21 -77 24 -127 9z"/>
<path d="M7500 683 c0 -5 20 -17 45 -29 35 -16 45 -18 45 -7 0 8 -16 21 -35
29 -38 16 -55 18 -55 7z"/>
<path d="M7528 458 c-27 -9 -39 -28 -18 -28 16 0 60 23 60 32 0 10 -7 9 -42
-4z"/>
<path d="M7377 190 c-10 -15 -13 -30 -8 -44 7 -17 24 -24 96 -38 58 -12 104
-28 134 -47 25 -16 64 -33 86 -37 22 -3 48 -11 58 -16 51 -26 66 65 18 112
l-29 29 -101 -6 -101 -6 -43 31 c-61 43 -91 49 -110 22z"/>
</g>
</svg>
